<svg id="_8" data-name="8" xmlns="http://www.w3.org/2000/svg" viewBox="0 0 800 600"><defs><style>.cls-1,.cls-13,.cls-14,.cls-15,.cls-16,.cls-17,.cls-19,.cls-23,.cls-6,.cls-9{fill:none;}.cls-1,.cls-12{stroke:#011859;}.cls-1,.cls-12,.cls-15,.cls-16,.cls-17,.cls-19,.cls-22,.cls-23,.cls-6,.cls-9{stroke-miterlimit:10;}.cls-1,.cls-15,.cls-6{stroke-width:0.75px;}.cls-2,.cls-22{fill:#d0dafd;}.cls-3{fill:#90d6d4;}.cls-18,.cls-4{fill:#011859;}.cls-4{opacity:0.15;}.cls-5{fill:#ff9d9c;}.cls-6{stroke:#d0dafd;}.cls-7{fill:#ffc5cb;}.cls-8{fill:#9c92dc;}.cls-15,.cls-22,.cls-9{stroke:#9c92dc;}.cls-10,.cls-12{fill:#fff;}.cls-11{fill:#6b6ce3;}.cls-12{stroke-width:0.5px;}.cls-13,.cls-17{stroke:#6b6ce3;}.cls-13,.cls-14{stroke-linecap:round;stroke-linejoin:round;stroke-width:3px;}.cls-14,.cls-16{stroke:#ffc5cb;}.cls-19{stroke:#e44543;}.cls-20{fill:#fec942;}.cls-21{fill:#ff8e00;}.cls-23{stroke:#fff;}.cls-24{fill:#e44543;}</style></defs><title>8. Web Developer</title><path class="cls-1" d="M137.12,455.23c-12.94-12-17-32.8,0-64.12"/><path class="cls-2" d="M482,144.58v4.89H275.39v-4.89a12,12,0,0,1,12-12H470A12,12,0,0,1,482,144.58Z"/><path class="cls-3" d="M427.06,379.1l-44.57,4s-20.4-29.08-26.55-32.7c0,0-23.53,74.7-16.14,103.45,0,0-30.63,24.78-131.31,8.94,0,0,.65-4.26,1.73-11.12.88-5.64,2-13,3.36-21.27.72-4.53,1.49-9.33,2.28-14.21,1.46-9,3-18.4,4.46-27.07,2.68-15.89,5.12-29.47,6.42-34.59,4-15.5,2.24-49.93-5-58.61,29.82-12.29,71.92-11.5,96.73-13.85C394.6,274.83,391.62,315.73,427.06,379.1Z"/><path class="cls-4" d="M270.59,400.75l-54.75,15.4c1.46-9,3-18.4,4.46-27.07,2.75,3.25,10.43,9.29,28.2,6.46C272.33,391.76,270.59,400.75,270.59,400.75Z"/><path class="cls-4" d="M267.28,424.7V439c-25.87-2.11-50.47,9.25-57.08,12.6.88-5.64,2-13,3.36-21.27l20.05-7.18Z"/><path class="cls-5" d="M327.21,417.57c-1.21,1.56-10.57,0-15.6-1.22s-13.34-.17-13.17.53,12.34,6.69,18.37,12.3c7.63,7.1,6.24,12-4,8.33,7.5,10.41-1.19,9-9.85,3.93-10.92-6.44-19.89-11.19-21-9.92s16.9,16.36,18.17,19.85-1.23,5.9-7.69,1.47-25.68-15-33.5-17A52.89,52.89,0,0,0,246.56,434a49,49,0,0,0-10.67,1,268.58,268.58,0,0,1,5.91-33.29l3.86-.9c23.57-5.36,52.85-10.43,54.52-9.53,2.24,1.21-.7,8.66-12.14,12.66,0,0,9.71,1.73,13.87,2.24s12.22,1.17,16.79,3.39C325.52,412.85,328.42,416,327.21,417.57Z"/><path class="cls-6" d="M482,144.58V262.84a12,12,0,0,1-12,12H287.38a12,12,0,0,1-12-12V144.58a12,12,0,0,1,12-12H470A12,12,0,0,1,482,144.58Z"/><path class="cls-5" d="M338,334.29c-5.35,2.26-11.2-.57-11.2-.57-2.2,1.16-5.85,4.37-9.25,7.61-4.31,4.11-8.23,8.25-8.23,8.25-20.51-9.31-23.53-32.68-19.85-45.67-4.58-5-3.11-12.5,2-15l11.26-30.7,27.54,3.13,22.92,13.51C362,313.06,347.84,330.13,338,334.29Z"/><path class="cls-2" d="M239.91,243.17V266a6.56,6.56,0,0,1-6.56,6.56h-21.8A6.56,6.56,0,0,1,205,266V236.9a6.56,6.56,0,0,1,6.56-6.56h15.53Z"/><rect class="cls-7" x="506.71" y="130.64" width="66.27" height="66.27" rx="9.14" ry="9.14"/><path class="cls-8" d="M646.17,222.13V227h-201v-4.89a12,12,0,0,1,12-12H634.17A12,12,0,0,1,646.17,222.13Z"/><path class="cls-9" d="M646.17,222.13v128a12,12,0,0,1-12,12H457.12a12,12,0,0,1-12-12v-128a12,12,0,0,1,12-12H634.17A12,12,0,0,1,646.17,222.13Z"/><path class="cls-10" d="M546.31,181.14a7.79,7.79,0,0,0,6.21,2.25A.81.81,0,0,0,553,182l-3-3,1-4.22,4.22-1,3,3a.81.81,0,0,0,1.39-.5,7.8,7.8,0,0,0-10.83-7.87L535,154.72a7.81,7.81,0,0,0-9.45-10.53l4.08,4.08-1,4.22-4.22,1-4.08-4.08a7.8,7.8,0,0,0,10.53,9.45l13.73,13.73A7.8,7.8,0,0,0,546.31,181.14Z"/><path class="cls-11" d="M522.64,176.42a4.18,4.18,0,1,0,5.91,5.91l8.47-9.24,1-1.1a2.25,2.25,0,0,0-.07-3.11L536.1,167a2.25,2.25,0,0,0-3.11-.07l-1.1,1Z"/><path class="cls-11" d="M550.23,150.21l5.59-3.7a1.28,1.28,0,0,1,1.62.16l.44.44.44.44a1.28,1.28,0,0,1,.16,1.62l-3.7,5.59a1.28,1.28,0,0,1-.89.56l-1.91.26-14.59,14.14-1.06-1.06-1.06-1.06L549.4,153l.26-1.91A1.28,1.28,0,0,1,550.23,150.21Z"/><path class="cls-11" d="M531.89,167.95l5.14,5.14,1-1.1a2.25,2.25,0,0,0-.07-3.11L536.1,167a2.25,2.25,0,0,0-3.11-.07Z"/><path class="cls-12" d="M650.16,241.94l1.47-4.45a22.65,22.65,0,0,0,5.24-1.54l3.65,3a2.25,2.25,0,0,0,2.82,0l4.59-3.7a2.25,2.25,0,0,0,.6-2.76l-2.11-4.19a22.65,22.65,0,0,0,2.62-4.8l4.66-.49a2.25,2.25,0,0,0,2-2l.63-5.86a2.25,2.25,0,0,0-1.53-2.37l-4.45-1.47a22.65,22.65,0,0,0-1.54-5.24l3-3.65a2.25,2.25,0,0,0,0-2.82l-3.7-4.59a2.25,2.25,0,0,0-2.76-.6l-4.19,2.11a22.65,22.65,0,0,0-4.8-2.62l-.49-4.66a2.25,2.25,0,0,0-2-2l-5.86-.63a2.25,2.25,0,0,0-2.37,1.53l-1.47,4.45a22.65,22.65,0,0,0-5.24,1.54l-3.65-3a2.25,2.25,0,0,0-2.82,0l-4.59,3.7a2.25,2.25,0,0,0-.6,2.76l2.11,4.19a22.65,22.65,0,0,0-2.62,4.8l-4.66.49a2.25,2.25,0,0,0-2,2l-.63,5.86A2.25,2.25,0,0,0,621,217.3l4.45,1.47A22.65,22.65,0,0,0,627,224l-3,3.65a2.25,2.25,0,0,0,0,2.82l3.7,4.59a2.25,2.25,0,0,0,2.76.6l4.19-2.11a22.65,22.65,0,0,0,4.8,2.62l.49,4.66a2.25,2.25,0,0,0,2,2l5.86.63A2.25,2.25,0,0,0,650.16,241.94ZM635.8,213.72a12.15,12.15,0,1,1,10.78,13.38A12.15,12.15,0,0,1,635.8,213.72Z"/><path class="cls-7" d="M614.78,207.16l-.13-2.71a13.09,13.09,0,0,0,2.51-1.92l2.58.84a1.3,1.3,0,0,0,1.53-.58l1.71-2.94a1.3,1.3,0,0,0-.25-1.61l-2-1.83a13.09,13.09,0,0,0,.43-3.13l2.42-1.23a1.3,1.3,0,0,0,.67-1.49l-.87-3.29a1.3,1.3,0,0,0-1.32-1l-2.71.13a13.09,13.09,0,0,0-1.92-2.51l.84-2.58a1.3,1.3,0,0,0-.58-1.53l-2.94-1.71a1.3,1.3,0,0,0-1.61.25l-1.83,2a13.09,13.09,0,0,0-3.13-.43L607,177.51a1.3,1.3,0,0,0-1.49-.67l-3.29.87a1.3,1.3,0,0,0-1,1.32l.13,2.71a13.09,13.09,0,0,0-2.51,1.92l-2.58-.84a1.3,1.3,0,0,0-1.53.58L593,186.33a1.3,1.3,0,0,0,.25,1.61l2,1.83a13.09,13.09,0,0,0-.43,3.13l-2.42,1.23a1.3,1.3,0,0,0-.67,1.49l.87,3.29a1.3,1.3,0,0,0,1.32,1l2.71-.13a13.09,13.09,0,0,0,1.92,2.51l-.84,2.58a1.3,1.3,0,0,0,.58,1.53l2.94,1.71a1.3,1.3,0,0,0,1.61-.25l1.83-2a13.09,13.09,0,0,0,3.13.43l1.23,2.42a1.3,1.3,0,0,0,1.49.67l3.29-.87A1.3,1.3,0,0,0,614.78,207.16ZM601.2,194.88a7,7,0,1,1,8.58,5A7,7,0,0,1,601.2,194.88Z"/><path class="cls-11" d="M635.39,185.86l.69-2a10.11,10.11,0,0,0,2.35-.65l1.61,1.34a1,1,0,0,0,1.26,0l2.07-1.62a1,1,0,0,0,.29-1.23l-.91-1.88a10.11,10.11,0,0,0,1.2-2.12l2.08-.19a1,1,0,0,0,.91-.88l.32-2.61a1,1,0,0,0-.67-1.07l-2-.69A10.11,10.11,0,0,0,644,170l1.34-1.61a1,1,0,0,0,0-1.26L643.71,165a1,1,0,0,0-1.23-.29l-1.88.91a10.11,10.11,0,0,0-2.12-1.2l-.19-2.08a1,1,0,0,0-.88-.91l-2.61-.32a1,1,0,0,0-1.07.67l-.69,2a10.11,10.11,0,0,0-2.35.65l-1.61-1.34a1,1,0,0,0-1.26,0l-2.07,1.62a1,1,0,0,0-.29,1.23l.91,1.88a10.11,10.11,0,0,0-1.2,2.12l-2.08.19a1,1,0,0,0-.91.88l-.32,2.61a1,1,0,0,0,.67,1.07l2,.69a10.11,10.11,0,0,0,.65,2.35l-1.34,1.61a1,1,0,0,0,0,1.26l1.62,2.07a1,1,0,0,0,1.23.29l1.88-.91a10.11,10.11,0,0,0,2.12,1.2l.19,2.08a1,1,0,0,0,.88.91l2.61.32A1,1,0,0,0,635.39,185.86Zm-6.21-12.7a5.42,5.42,0,1,1,4.72,6A5.42,5.42,0,0,1,629.18,173.16Z"/><circle class="cls-10" cx="460.83" cy="218.58" r="3.59"/><circle class="cls-2" cx="473.11" cy="218.58" r="3.59"/><circle class="cls-10" cx="485.39" cy="218.58" r="3.59"/><circle class="cls-10" cx="291.09" cy="141.02" r="3.59"/><circle class="cls-8" cx="303.37" cy="141.02" r="3.59"/><circle class="cls-10" cx="315.65" cy="141.02" r="3.59"/><polyline class="cls-13" points="365.9 199.78 352.67 188.37 365.9 176.97"/><polyline class="cls-13" points="391.48 199.78 404.71 188.37 391.48 176.97"/><line class="cls-14" x1="385.72" y1="173.04" x2="371.65" y2="203.7"/><path class="cls-8" d="M474.1,159.38a3.83,3.83,0,1,0-5.81-.48,14.68,14.68,0,0,0-3.16,3,.73.73,0,0,0,1,1,14.66,14.66,0,0,0,3-3.16A3.83,3.83,0,0,0,474.1,159.38Zm-4.33-.37a2.7,2.7,0,0,1-.71-.71,2.84,2.84,0,1,1,.71.71Z"/><line class="cls-15" x1="316.6" y1="157.91" x2="347.23" y2="157.91"/><path class="cls-8" d="M292.58,155.51h1.1l.79,2.64h0l.71-2.64H296l.7,2.64h0l.79-2.64h1.1l-1.58,4.31h-.64l-.81-2.8h0l-.82,2.8h-.64Z"/><path class="cls-8" d="M298.8,155.51h1.1l.79,2.64h0l.71-2.64h.82l.7,2.64h0l.79-2.64h1.1l-1.58,4.31h-.64l-.81-2.8h0l-.82,2.8h-.64Z"/><path class="cls-8" d="M305,155.51h1.1l.79,2.64h0l.71-2.64h.82l.7,2.64h0l.79-2.64h1.1l-1.58,4.31h-.64L308,157h0l-.82,2.8h-.64Z"/><path class="cls-8" d="M311.73,158.79h1v1h-1Z"/><path class="cls-8" d="M350.81,158.79h1v1h-1Z"/><path class="cls-8" d="M357.16,158.42A2.23,2.23,0,0,1,355,160a2.3,2.3,0,0,1,0-4.6,2.26,2.26,0,0,1,2.17,1.58H356a1.07,1.07,0,0,0-1-.63,1.26,1.26,0,0,0-1.25,1.35A1.29,1.29,0,0,0,355,159a1.11,1.11,0,0,0,1-.6Z"/><path class="cls-8" d="M357.59,157.68a2.31,2.31,0,0,1,2.3-2.31,2.28,2.28,0,0,1,2.29,2.29,2.25,2.25,0,0,1-2.29,2.31A2.31,2.31,0,0,1,357.59,157.68Zm3.55,0a1.26,1.26,0,1,0-2.52,0,1.26,1.26,0,1,0,2.52,0Z"/><path class="cls-8" d="M362.79,155.51h.95v.37h0a1.23,1.23,0,0,1,1.13-.51,1.46,1.46,0,0,1,1.24.68,1.59,1.59,0,0,1,1.39-.68,1.67,1.67,0,0,1,1.42.67,2.11,2.11,0,0,1,.33,1.28v2.52h-1v-2.39c0-.25,0-1.12-.82-1.12a.84.84,0,0,0-.72.4,1.8,1.8,0,0,0-.15.88v2.23h-1v-2.39c0-.59-.23-1.12-.86-1.12-.82,0-.82.9-.82,1.36v2.15h-1Z"/><rect class="cls-15" x="275.39" y="149.47" width="206.61" height="16.4"/><line class="cls-16" x1="297.57" y1="212.3" x2="316.6" y2="212.3"/><line class="cls-16" x1="297.57" y1="236.65" x2="316.6" y2="236.65"/><line class="cls-16" x1="404.71" y1="219.66" x2="429.72" y2="219.66"/><line class="cls-16" x1="384.5" y1="219.66" x2="393.54" y2="219.66"/><line class="cls-16" x1="309.18" y1="219.66" x2="377.31" y2="219.66"/><line class="cls-17" x1="311.42" y1="228.15" x2="413.17" y2="228.15"/><line class="cls-16" x1="347.27" y1="245.72" x2="423.11" y2="245.72"/><line class="cls-17" x1="377.31" y1="253.5" x2="423.11" y2="253.5"/><path class="cls-18" d="M291.38,288.9c-4.73-25.74,8-36.81,8-36.81s-7.22-3.81-5.52-7.88,8.93,0,10.9,4.33c0,0,8.54-4.06,21.8-2.82s12,4.26,27.06,3.87,20.22,5.38,20.23,8c0,3.55-4.6,6.57-10,6.7,7.88,6.7,2.1,15.24-12.48,6.44,5,6-1.16,11.52-17.3,1.49,8,8.15-6.52,10.81-21.87-8,0,0-1.26,20.12-11.56,26.93A10.71,10.71,0,0,0,291.38,288.9Z"/><path class="cls-19" d="M289.42,303.9a14.23,14.23,0,0,0,13,4"/><path class="cls-20" d="M605.72,433h-.45l.65-9h-39l2.77,38.13a9,9,0,0,0,8.94,8.33h15.6a9,9,0,0,0,9-8.33V462a14.63,14.63,0,1,0,2.55-29Zm0,21.4a6.78,6.78,0,0,1-2-.29l1-13.17a6.17,6.17,0,0,1,1-.08,6.77,6.77,0,0,1,0,13.55Z"/><path class="cls-21" d="M566.89,424l.45,6.18h38.13l.45-6.18Z"/><path class="cls-15" d="M601,380.6c.09,2.35-3.81,4.79-3.73,7,.09,2.39,4.18,4.51,4.26,6.66.1,2.45-3.81,4.89-3.73,7,.1,2.6,4.19,4.73,4.26,6.65.17,4.32-3.86,3.56-3.73,7"/><path class="cls-15" d="M574.58,380.6c.09,2.35-3.81,4.79-3.73,7,.09,2.39,4.18,4.51,4.26,6.66.1,2.45-3.81,4.89-3.73,7,.1,2.6,4.19,4.73,4.26,6.65.17,4.32-3.86,3.56-3.73,7"/><path class="cls-15" d="M588.1,373.13c.09,2.35-3.81,4.79-3.73,7,.09,2.39,4.18,4.51,4.26,6.66.1,2.45-3.81,4.89-3.73,7,.1,2.6,4.19,4.73,4.26,6.65.17,4.32-3.86,3.56-3.73,7"/><path class="cls-18" d="M248.88,458.2H329.1a0,0,0,0,1,0,0v12.27a0,0,0,0,1,0,0H238a0,0,0,0,1,0,0v-1.34A10.93,10.93,0,0,1,248.88,458.2Z"/><path class="cls-22" d="M502.5,227V362.14H457.12a12,12,0,0,1-12-12V227Z"/><path class="cls-19" d="M290.33,295.72c1.2-3.74,10-2.91,11.47,2.59"/><line class="cls-23" x1="464.42" y1="233.2" x2="491.95" y2="233.2"/><line class="cls-23" x1="455.63" y1="241.74" x2="491.95" y2="241.74"/><line class="cls-23" x1="477.19" y1="250.29" x2="491.95" y2="250.29"/><line class="cls-23" x1="480.67" y1="258.83" x2="491.95" y2="258.83"/><line class="cls-23" x1="467.11" y1="267.37" x2="491.95" y2="267.37"/><line class="cls-23" x1="476.7" y1="276.45" x2="491.95" y2="276.45"/><line class="cls-23" x1="472.31" y1="292.99" x2="491.95" y2="292.99"/><line class="cls-23" x1="459.66" y1="292.99" x2="467.71" y2="292.99"/><line class="cls-23" x1="464.42" y1="301.53" x2="491.95" y2="301.53"/><line class="cls-23" x1="481.4" y1="310.07" x2="491.95" y2="310.07"/><line class="cls-23" x1="472.72" y1="318.61" x2="491.95" y2="318.61"/><line class="cls-23" x1="460.5" y1="318.61" x2="468.49" y2="318.61"/><line class="cls-23" x1="470.53" y1="327.15" x2="491.95" y2="327.15"/><line class="cls-23" x1="457.36" y1="327.15" x2="465.44" y2="327.15"/><rect class="cls-8" x="510.94" y="234.12" width="5.77" height="5.77"/><rect class="cls-2" x="510.94" y="250.61" width="5.77" height="5.77"/><rect class="cls-2" x="510.94" y="267.1" width="5.77" height="5.77"/><rect class="cls-8" x="510.94" y="283.59" width="5.77" height="5.77"/><rect class="cls-2" x="510.94" y="300.08" width="5.77" height="5.77"/><rect class="cls-2" x="510.94" y="316.57" width="5.77" height="5.77"/><line class="cls-17" x1="608.77" y1="235.17" x2="618.78" y2="235.17"/><line class="cls-16" x1="527.95" y1="235.17" x2="600.73" y2="235.17"/><line class="cls-16" x1="583.59" y1="242.59" x2="618.78" y2="242.59"/><line class="cls-16" x1="565.5" y1="242.59" x2="577.69" y2="242.59"/><line class="cls-17" x1="527.95" y1="242.59" x2="556.92" y2="242.59"/><line class="cls-16" x1="548.62" y1="286.14" x2="606.75" y2="286.14"/><line class="cls-16" x1="527.95" y1="286.14" x2="540.86" y2="286.14"/><line class="cls-16" x1="583.59" y1="293.56" x2="620.92" y2="293.56"/><line class="cls-17" x1="527.95" y1="293.56" x2="573.37" y2="293.56"/><line class="cls-17" x1="610.02" y1="300.98" x2="625.88" y2="300.98"/><line class="cls-16" x1="550.28" y1="300.98" x2="602.84" y2="300.98"/><line class="cls-16" x1="527.95" y1="300.98" x2="539.85" y2="300.98"/><line class="cls-16" x1="527.95" y1="308.4" x2="574.7" y2="308.4"/><line class="cls-17" x1="582.74" y1="255.72" x2="590.5" y2="255.72"/><line class="cls-17" x1="574.3" y1="255.72" x2="579.78" y2="255.72"/><line class="cls-16" x1="556.46" y1="255.72" x2="571.07" y2="255.72"/><line class="cls-16" x1="545.65" y1="255.72" x2="551.9" y2="255.72"/><line class="cls-16" x1="559.84" y1="263.14" x2="585.32" y2="263.14"/><line class="cls-16" x1="545.65" y1="263.14" x2="554.49" y2="263.14"/><line class="cls-17" x1="545.65" y1="270.56" x2="574.92" y2="270.56"/><line class="cls-16" x1="601.32" y1="322.68" x2="620.58" y2="322.68"/><line class="cls-17" x1="584.26" y1="322.68" x2="593.62" y2="322.68"/><line class="cls-16" x1="549.01" y1="322.68" x2="577.43" y2="322.68"/><line class="cls-17" x1="572.07" y1="330.1" x2="607.65" y2="330.1"/><line class="cls-16" x1="549.01" y1="330.1" x2="562.61" y2="330.1"/><path class="cls-3" d="M224.26,406.3c4.59-1.45,10.73-3.05,17.54-4.66a268.58,268.58,0,0,0-5.91,33.29,66.13,66.13,0,0,0-17.32,6.28c-19.43,10-61.66,28.52-80.55,18.37s-18.06-25.76-3.8-54.69,58.17-95.78,87.52-109c13.7-1.77,35.24,37.62,5,58.61-10,5.53-24,18.48-34.64,31.27a.06.06,0,0,0,0,0c-5.31,6.39-9.73,12.71-12.38,18.07h0c-2.14,4.34-3.11,8-2.38,10.57S203.46,412.89,224.26,406.3Z"/><path class="cls-4" d="M196.84,423.17S177.21,433,163,419.59s28.48-33.6,29-33.86c0,0,0,0,0,0a.06.06,0,0,0,0,0c-5.31,6.39-9.73,12.71-12.38,18.07h0C167.26,422,196.84,423.17,196.84,423.17Z"/><path class="cls-1" d="M276.59,399.36c4.46,1.89,7.45,3.81,11.45,4.51"/><path class="cls-1" d="M288.72,422.38c7.29,3.11,18,10,18,10"/><path class="cls-1" d="M355.93,350.35c3.77-10.95,8.27-14.89,8.27-14.89"/><ellipse class="cls-18" cx="326.76" cy="299.39" rx="1.83" ry="2.75"/><ellipse class="cls-18" cx="350.31" cy="299.39" rx="1.83" ry="2.75"/><rect class="cls-1" x="313.43" y="290.63" width="20.88" height="14.45" rx="1.95" ry="1.95"/><rect class="cls-1" x="345.48" y="290.63" width="20.88" height="14.45" rx="1.95" ry="1.95"/><line class="cls-1" x1="334.31" y1="297.85" x2="345.48" y2="297.85"/><path class="cls-1" d="M341.82,295.82c-1.31,4.29-1.45,11.26,1,14.31a10.12,10.12,0,0,1-9.23,1.16"/><path class="cls-24" d="M326.75,333.72c-2.2,1.16-5.85,4.37-9.25,7.61l-6.65-20.83C315.21,326.88,322.35,332.06,326.75,333.72Z"/><rect class="cls-8" x="194.68" y="183.89" width="61.77" height="32.9" rx="4.96" ry="4.96"/><path class="cls-10" d="M206.54,194.52h2.27v5h4.39v-5h2.27v12.25H213.2v-5.15h-4.39v5.15h-2.27Z"/><path class="cls-10" d="M219,196.64h-2.27v-2.12h6.82v2.12h-2.29v10.13H219Z"/><path class="cls-10" d="M224.62,194.52h3.15l3.26,9.27h0l3.23-9.27h3.15v12.25h-2.27v-9.19h0L232,206.77h-1.92l-3.15-9.19h0v9.19h-2.27Z"/><path class="cls-10" d="M239.67,194.52h2.27v10.13h3.74v2.12h-6Z"/><path class="cls-7" d="M664,350.21v28a6.93,6.93,0,0,1-6.92,6.94H620.71a6.94,6.94,0,0,1-6.94-6.94v-28a6.94,6.94,0,0,1,6.94-6.94h36.41A6.93,6.93,0,0,1,664,350.21Z"/><path class="cls-11" d="M626.27,369.06c.4,0,1.61-.1,1.61-1v-3.58a2.36,2.36,0,0,1,2.2-2.29h1.49v1.49h-.74c-.61,0-.68.63-.68,1.08v3.51c0,1.28-1.23,1.56-2.07,1.59v0c.84,0,2.05.17,2.07,1.74v3.51c0,.45.07,1.08.68,1.08h.74v1.49h-1.49a2.36,2.36,0,0,1-2.2-2.29v-3.58c0-1-1.21-1.16-1.61-1.16Z"/><path class="cls-11" d="M651.54,370.69c-.4,0-1.61.12-1.61,1.16v3.58a2.36,2.36,0,0,1-2.2,2.29h-1.49v-1.49H647c.61,0,.68-.63.68-1.08v-3.51c0-1.57,1.23-1.69,2.07-1.74v0c-.84,0-2.05-.31-2.07-1.59v-3.51c0-.45-.07-1.08-.68-1.08h-.75v-1.49h1.49a2.36,2.36,0,0,1,2.2,2.29V368c0,.91,1.21,1,1.61,1Z"/><path class="cls-11" d="M664,350.21v4.53H613.77v-4.53a6.94,6.94,0,0,1,6.94-6.94h36.41A6.93,6.93,0,0,1,664,350.21Z"/><circle class="cls-10" cx="622.42" cy="349.01" r="2.73"/><circle class="cls-10" cx="630.45" cy="349.01" r="2.73"/><path class="cls-7" d="M237.77,153V140a5.43,5.43,0,0,0-2.71-4.7l-11.29-6.52a5.43,5.43,0,0,0-5.43,0l-11.29,6.52a5.43,5.43,0,0,0-2.71,4.7v13a5.43,5.43,0,0,0,2.71,4.7l11.29,6.52a5.43,5.43,0,0,0,5.43,0l11.29-6.52A5.43,5.43,0,0,0,237.77,153Z"/><path class="cls-10" d="M229,148.75a8.15,8.15,0,0,1-7.42,4.79,8.46,8.46,0,0,1-8.37-8.42,8.36,8.36,0,0,1,8.31-8.29,8.24,8.24,0,0,1,7.57,4.9h-3.38a5.29,5.29,0,0,0-9.52,3.43,5.59,5.59,0,0,0,5.34,5.6,5.28,5.28,0,0,0,4-2Z"/><path class="cls-10" d="M230.8,140.76h2.1v3.38h3.37v2.1H232.9v3.39h-2.1v-3.39h-3.37v-2.1h3.37Z"/><path class="cls-11" d="M242.35,140.76h2.1v3.38h3.37v2.1h-3.37v3.39h-2.1v-3.39H239v-2.1h3.37Z"/><path class="cls-8" d="M225.34,259.38a7.39,7.39,0,0,1-6.73,4.35A7.67,7.67,0,0,1,211,256.1a7.58,7.58,0,0,1,7.54-7.52,7.47,7.47,0,0,1,6.87,4.45h-3.07a4.8,4.8,0,0,0-8.64,3.11,5.07,5.07,0,0,0,4.84,5.08,4.78,4.78,0,0,0,3.66-1.83Z"/><path class="cls-8" d="M228.76,259.27a2,2,0,0,0,3.94.12c0-1.5-1-1.77-2.77-2.46-1.12-.43-3.46-1.12-3.46-4.19a4.13,4.13,0,0,1,4.27-4.15,4.27,4.27,0,0,1,4.31,4.15h-2.75a1.55,1.55,0,0,0-1.63-1.63,1.44,1.44,0,0,0-1.5,1.48c0,1.26.94,1.53,2.42,2,1.2.39,3.82,1.32,3.82,4.49a4.51,4.51,0,0,1-4.72,4.64,4.65,4.65,0,0,1-4.74-4.47Z"/><path class="cls-8" d="M239,259.27a2,2,0,0,0,3.94.12c0-1.5-1-1.77-2.77-2.46-1.12-.43-3.46-1.12-3.46-4.19a4.13,4.13,0,0,1,4.27-4.15,4.27,4.27,0,0,1,4.31,4.15h-2.75a1.55,1.55,0,0,0-1.63-1.63,1.44,1.44,0,0,0-1.5,1.48c0,1.26.94,1.53,2.42,2,1.2.39,3.82,1.32,3.82,4.49a4.51,4.51,0,0,1-4.72,4.64,4.65,4.65,0,0,1-4.74-4.47Z"/><path class="cls-8" d="M239.91,243.17h-8.57a4.26,4.26,0,0,1-4.26-4.26v-8.57Z"/><path class="cls-1" d="M308.24,315.73a24.17,24.17,0,0,0,2.6,4.77c4.37,6.39,11.5,11.56,15.9,13.22"/><path class="cls-24" d="M246.56,434a49,49,0,0,0-10.67,1,268.58,268.58,0,0,1,5.91-33.29l3.86-.9Z"/><path class="cls-1" d="M190.13,411.35c-14.48.88-21.06-5.24-9-19.73"/><path class="cls-1" d="M209.41,337.28a79.55,79.55,0,0,1,12.95,13.07"/><path class="cls-1" d="M235.36,440.49c.16-1.87.33-3.73.53-5.56a268.6,268.6,0,0,1,5.91-33.29c1.52-6.23,2.66-10,2.66-10"/><path class="cls-1" d="M228.7,328s1.58,18.16-2,26.51"/><line class="cls-1" x1="231.07" y1="404.33" x2="203.8" y2="411.71"/><line class="cls-1" x1="229.05" y1="410.22" x2="227.88" y2="437.16"/><line class="cls-1" x1="209.41" y1="445.72" x2="217.43" y2="441.8"/><path class="cls-1" d="M291.67,331.72c4,11.57,17.61,17.86,17.61,17.86l7.37-7.42"/><rect class="cls-1" x="251.5" y="332.18" width="10.21" height="10.21" transform="translate(313.65 -82.66) rotate(45)"/><rect class="cls-1" x="180.63" y="364.84" width="10.21" height="10.21" transform="translate(315.99 -22.98) rotate(45)"/><rect class="cls-1" x="158.47" y="416.37" width="10.21" height="10.21" transform="translate(345.94 7.78) rotate(45)"/><rect class="cls-1" x="210.74" y="413.6" width="10.21" height="10.21" transform="translate(359.29 -29.99) rotate(45)"/><rect class="cls-1" x="254.96" y="378.79" width="10.21" height="10.21" transform="translate(347.63 -71.45) rotate(45)"/><rect class="cls-1" x="299.92" y="361.12" width="10.21" height="10.21" transform="translate(348.3 -108.42) rotate(45)"/><rect class="cls-1" x="354.96" y="322.98" width="10.21" height="10.21" transform="translate(337.45 -158.51) rotate(45)"/><rect class="cls-1" x="383.92" y="364.84" width="10.21" height="10.21" transform="translate(375.54 -166.72) rotate(45)"/><rect class="cls-1" x="325.29" y="380.05" width="10.21" height="10.21" transform="translate(369.12 -120.81) rotate(45)"/><rect class="cls-1" x="233.64" y="450.13" width="10.21" height="10.21" transform="translate(391.83 -35.48) rotate(45)"/><rect class="cls-1" x="212.33" y="313.51" width="10.21" height="10.21" transform="translate(288.98 -60.43) rotate(45)"/><rect class="cls-1" x="274.14" y="355.5" width="4.89" height="4.89" transform="translate(334.12 -90.74) rotate(45)"/><rect class="cls-1" x="307.23" y="395.26" width="4.89" height="4.89" transform="translate(371.93 -102.49) rotate(45)"/><rect class="cls-1" x="322.49" y="424.93" width="4.89" height="4.89" transform="translate(397.37 -104.59) rotate(45)"/><rect class="cls-1" x="263.22" y="447.44" width="4.89" height="4.89" transform="translate(395.93 -56.09) rotate(45)"/><rect class="cls-1" x="327.95" y="345.65" width="4.89" height="4.89" transform="translate(342.91 -131.67) rotate(45)"/><rect class="cls-1" x="386.57" y="340.46" width="4.89" height="4.89" transform="translate(356.41 -174.64) rotate(45)"/><rect class="cls-1" x="409.89" y="363.77" width="4.89" height="4.89" transform="translate(379.73 -184.3) rotate(45)"/><rect class="cls-1" x="374.86" y="302.62" width="4.89" height="4.89" transform="translate(326.23 -177.44) rotate(45)"/><rect class="cls-1" x="195.69" y="341.37" width="4.89" height="4.89" transform="translate(301.15 -39.4) rotate(45)"/><rect class="cls-1" x="153.91" y="387.8" width="4.89" height="4.89" transform="translate(321.74 3.74) rotate(45)"/><rect class="cls-1" x="139.85" y="444.8" width="4.89" height="4.89" transform="translate(357.93 30.37) rotate(45)"/><rect class="cls-1" x="191.14" y="432.48" width="4.89" height="4.89" transform="translate(364.24 -9.5) rotate(45)"/><rect class="cls-1" x="237.46" y="368.01" width="4.89" height="4.89" transform="translate(332.22 -61.14) rotate(45)"/><rect class="cls-1" x="274.14" y="309.46" width="4.89" height="4.89" transform="translate(301.56 -104.22) rotate(45)"/><rect class="cls-1" x="242.01" y="299.7" width="4.89" height="4.89" transform="translate(285.25 -84.36) rotate(45)"/><path class="cls-12" d="M577.77,343.35,526.61,470.47H321.3L372.73,342.7a8.64,8.64,0,0,1,8-5.41H573.67A4.41,4.41,0,0,1,577.77,343.35Z"/><path class="cls-18" d="M577.77,343.35,526.61,470.47H329L380.39,342.7a8.64,8.64,0,0,1,8-5.41H573.67A4.41,4.41,0,0,1,577.77,343.35Z"/><path class="cls-10" d="M475.21,406.72a15.81,15.81,0,1,1-18.39-18.39,15.81,15.81,0,0,0,18.39,18.39Z"/><circle class="cls-10" cx="472.36" cy="391.17" r="6.42"/><polyline class="cls-1" points="605.48 430.2 605.47 430.2 567.33 430.2 562.61 430.2"/><path class="cls-1" d="M572.58,448.59c.71,12-2.25,23.93,21,23.35"/><path class="cls-1" d="M610.64,459.52c5-2.2,11.09-10.75,9.7-19.29"/></svg>